<?xml version="1.0" encoding="UTF-8"?>
<svg id="Layer_1" data-name="Layer 1" xmlns="http://www.w3.org/2000/svg" viewBox="0 0 160.8 99.73">
  <defs>
    <style>
      .cls-1 {
        fill: #fff;
      }
    </style>
  </defs>
  <g id="_e1e1e1ff" data-name="#e1e1e1ff">
    <path class="cls-1" d="M73.67.3c20.59-1.77,41.56,4.32,58.42,16.16,10.32,7.18,19.18,16.4,26.19,26.82,2.46,2.99,3.46,7.39,1.43,10.88-11.53,18.44-29.13,33.27-49.73,40.5-17.95,6.41-37.99,6.73-56.16,1.01-21.8-6.82-40.56-22.1-52.63-41.38-1.6-2.62-1.54-6.03-.11-8.71C16.64,20.51,43.91,2.24,73.67.3M72.08,10.55c-24.66,2.58-47.16,17.45-60.67,38-.57,1.15-.45,2.24.35,3.26,8.21,11.99,19.25,22.13,32.21,28.79,17.38,9.26,38.35,11.5,57.31,6.14,19.37-5.26,36.19-18.16,47.54-34.57.85-1.08,1.38-2.68.43-3.89-6.61-9.83-15.16-18.4-25.1-24.88-15.21-10.1-33.89-14.83-52.07-12.85Z"/>
    <path class="cls-1" d="M73.44,15.99c6.54-.8,14.51-1.78,19.69,3.31,7.1,6.96,14.06,14.06,21.19,20.99,4.92,4.93,5.07,13.68.08,18.61-7,6.97-14,13.95-21.03,20.89-2.47,2.56-5.96,3.99-9.5,4.01-5.36.1-11.57.69-15.75-3.4-7.21-7.13-14.44-14.24-21.61-21.4-5.12-4.97-4.98-14.19.31-18.99,5.79-5.8,11.65-11.52,17.44-17.32,2.66-2.71,5.36-5.71,9.18-6.7M76.22,25.68c-1.11.49-1.92,1.44-2.8,2.25-6.45,6.51-13.05,12.88-19.49,19.41-1.53,1.27-1.23,3.83.31,4.99,6.86,6.81,13.72,13.61,20.6,20.4.96,1.2,2.66,1,3.97.67,6.47-6.25,12.78-12.66,19.2-18.95,1.43-1.44,3.35-2.75,3.52-4.97-.33-1.62-1.58-2.72-2.67-3.84-6.44-6.25-12.76-12.62-19.17-18.9-.9-.98-2.17-1.48-3.47-1.06Z"/>
    <path class="cls-1" d="M74.41,41.03c4.96-1.78,11.08,1.72,11.76,7.02,1.19,5.39-3.64,11.1-9.18,10.61-5.6.21-10.23-5.78-8.71-11.14.74-3.04,3.1-5.63,6.13-6.49Z"/>
  </g>
</svg>